<svg width="24" height="24" viewBox="0 0 24 24" fill="none" xmlns="http://www.w3.org/2000/svg">
<path d="M19.24 5.58H18.84L15.46 2.2C15.19 1.93 14.75 1.93 14.47 2.2C14.2 2.47 14.2 2.91 14.47 3.19L16.86 5.58H7.14L9.53 3.19C9.8 2.92 9.8 2.48 9.53 2.2C9.26 1.93 8.82 1.93 8.54 2.2L5.17 5.58H4.77C3.87 5.58 2 5.58 2 8.14C2 9.11 2.2 9.75 2.62 10.17C2.86 10.42 3.15 10.55 3.46 10.62C3.75 10.69 4.06 10.7 4.36 10.7H19.64C19.95 10.7 20.24 10.68 20.52 10.62C21.36 10.42 22 9.82 22 8.14C22 5.58 20.13 5.58 19.24 5.58Z" fill="#2171D2"/>
<path d="M19.05 12H4.86997C4.24997 12 3.77997 12.55 3.87997 13.16L4.71997 18.3C4.99997 20.02 5.74997 22 9.07997 22H14.69C18.06 22 18.66 20.31 19.02 18.42L20.03 13.19C20.15 12.57 19.68 12 19.05 12ZM10.61 18.45C10.61 18.84 10.3 19.15 9.91997 19.15C9.52997 19.15 9.21997 18.84 9.21997 18.45V15.15C9.21997 14.77 9.52997 14.45 9.91997 14.45C10.3 14.45 10.61 14.77 10.61 15.15V18.45ZM14.89 18.45C14.89 18.84 14.58 19.15 14.19 19.15C13.81 19.15 13.49 18.84 13.49 18.45V15.15C13.49 14.77 13.81 14.45 14.19 14.45C14.58 14.45 14.89 14.77 14.89 15.15V18.45Z" fill="#2171D2"/>
</svg>
