<svg width="19" height="19" viewBox="0 0 19 19" fill="none" xmlns="http://www.w3.org/2000/svg">
<path d="M17.4166 2.57288H1.58325C1.25867 2.57288 0.989502 2.30371 0.989502 1.97913C0.989502 1.65454 1.25867 1.38538 1.58325 1.38538H17.4166C17.7412 1.38538 18.0103 1.65454 18.0103 1.97913C18.0103 2.30371 17.7412 2.57288 17.4166 2.57288Z" fill="#2171D2"/>
<path d="M2.90552 1.97913V11.4554C2.90552 12.2312 3.26968 12.9675 3.8951 13.4345L8.01968 16.522C8.89843 17.1791 10.1097 17.1791 10.9884 16.522L15.113 13.4345C15.7384 12.9675 16.1026 12.2312 16.1026 11.4554V1.97913H2.90552ZM12.6668 10.8854H6.33343C6.00885 10.8854 5.73968 10.6162 5.73968 10.2916C5.73968 9.96704 6.00885 9.69788 6.33343 9.69788H12.6668C12.9914 9.69788 13.2605 9.96704 13.2605 10.2916C13.2605 10.6162 12.9914 10.8854 12.6668 10.8854ZM12.6668 6.92704H6.33343C6.00885 6.92704 5.73968 6.65788 5.73968 6.33329C5.73968 6.00871 6.00885 5.73954 6.33343 5.73954H12.6668C12.9914 5.73954 13.2605 6.00871 13.2605 6.33329C13.2605 6.65788 12.9914 6.92704 12.6668 6.92704Z" fill="#2171D2"/>
</svg>
