<svg width="19" height="18" viewBox="0 0 19 18" fill="none" xmlns="http://www.w3.org/2000/svg">
<path d="M17.4166 2.4375H1.58331C1.25873 2.4375 0.989563 2.1825 0.989563 1.875C0.989563 1.5675 1.25873 1.3125 1.58331 1.3125H17.4166C17.7412 1.3125 18.0104 1.5675 18.0104 1.875C18.0104 2.1825 17.7412 2.4375 17.4166 2.4375Z" fill="#2171D2"/>
<path d="M2.9054 1.875V10.8525C2.9054 11.5875 3.26956 12.285 3.89498 12.7275L8.01956 15.6525C8.89831 16.275 10.1096 16.275 10.9883 15.6525L15.1129 12.7275C15.7383 12.285 16.1025 11.5875 16.1025 10.8525V1.875H2.9054ZM12.6666 10.3125H6.33331C6.00873 10.3125 5.73956 10.0575 5.73956 9.75C5.73956 9.4425 6.00873 9.1875 6.33331 9.1875H12.6666C12.9912 9.1875 13.2604 9.4425 13.2604 9.75C13.2604 10.0575 12.9912 10.3125 12.6666 10.3125ZM12.6666 6.5625H6.33331C6.00873 6.5625 5.73956 6.3075 5.73956 6C5.73956 5.6925 6.00873 5.4375 6.33331 5.4375H12.6666C12.9912 5.4375 13.2604 5.6925 13.2604 6C13.2604 6.3075 12.9912 6.5625 12.6666 6.5625Z" fill="#2171D2"/>
</svg>
