<svg width="34" height="34" viewBox="0 0 34 34" fill="none" xmlns="http://www.w3.org/2000/svg">
<path d="M19.125 4.25C14.042 4.25 9.91669 8.37533 9.91669 13.4583C9.91669 18.5413 14.042 22.6667 19.125 22.6667C24.208 22.6667 28.3334 18.5413 28.3334 13.4583C28.3334 8.37533 24.208 4.25 19.125 4.25ZM19.125 10.4656C18.7475 10.4656 18.4344 10.1525 18.4344 9.775C18.4344 9.39746 18.7475 9.08437 19.125 9.08437C21.5376 9.08437 23.499 11.0457 23.499 13.4583C23.499 15.8709 21.5376 17.8323 19.125 17.8323C18.7475 17.8323 18.4344 17.5192 18.4344 17.1417C18.4344 16.7641 18.7475 16.451 19.125 16.451C20.7733 16.451 22.1177 15.1066 22.1177 13.4583C22.1177 11.81 20.7733 10.4656 19.125 10.4656ZM19.125 20.5948C15.1931 20.5948 11.9886 17.3903 11.9886 13.4583C11.9886 13.0808 12.3016 12.7677 12.6792 12.7677C13.0567 12.7677 13.3698 13.0808 13.3698 13.4583C13.3698 16.6352 15.9481 19.2135 19.125 19.2135C22.3019 19.2135 24.8802 16.6352 24.8802 13.4583C24.8802 10.2815 22.3019 7.70312 19.125 7.70312C18.7475 7.70312 18.4344 7.39004 18.4344 7.0125C18.4344 6.63496 18.7475 6.32187 19.125 6.32187C23.057 6.32187 26.2615 9.52637 26.2615 13.4583C26.2615 17.3903 23.057 20.5948 19.125 20.5948Z" fill="#2171D2"/>
</svg>
