<svg width="20" height="19" viewBox="0 0 20 19" fill="none" xmlns="http://www.w3.org/2000/svg">
<path d="M10.125 0.25C5.04202 0.25 0.916687 4.37533 0.916687 9.45833C0.916687 14.5413 5.04202 18.6667 10.125 18.6667C15.208 18.6667 19.3334 14.5413 19.3334 9.45833C19.3334 4.37533 15.208 0.25 10.125 0.25ZM10.125 6.46562C9.74748 6.46562 9.4344 6.15254 9.4344 5.775C9.4344 5.39746 9.74748 5.08437 10.125 5.08437C12.5376 5.08437 14.499 7.04575 14.499 9.45833C14.499 11.8709 12.5376 13.8323 10.125 13.8323C9.74748 13.8323 9.4344 13.5192 9.4344 13.1417C9.4344 12.7641 9.74748 12.451 10.125 12.451C11.7733 12.451 13.1177 11.1066 13.1177 9.45833C13.1177 7.81004 11.7733 6.46562 10.125 6.46562ZM10.125 16.5948C6.19306 16.5948 2.98856 13.3903 2.98856 9.45833C2.98856 9.08079 3.30165 8.76771 3.67919 8.76771C4.05673 8.76771 4.36981 9.08079 4.36981 9.45833C4.36981 12.6352 6.94815 15.2135 10.125 15.2135C13.3019 15.2135 15.8802 12.6352 15.8802 9.45833C15.8802 6.28146 13.3019 3.70312 10.125 3.70312C9.74748 3.70312 9.4344 3.39004 9.4344 3.0125C9.4344 2.63496 9.74748 2.32187 10.125 2.32187C14.057 2.32187 17.2615 5.52637 17.2615 9.45833C17.2615 13.3903 14.057 16.5948 10.125 16.5948Z" fill="#2171D2"/>
</svg>
