<svg width="57" height="57" viewBox="0 0 57 57" fill="none" xmlns="http://www.w3.org/2000/svg">
<path d="M35.2688 9.38124V18.4062H31.7063V9.38124C31.7063 8.73999 31.1362 8.43124 30.7562 8.43124C30.6375 8.43124 30.5188 8.45499 30.4 8.50249L11.5662 15.6037C10.3075 16.0787 9.5 17.2662 9.5 18.62V20.2112C7.33875 21.8262 5.9375 24.415 5.9375 27.3362V18.62C5.9375 15.7937 7.67125 13.2762 10.3075 12.2787L29.165 5.15374C29.6875 4.96374 30.2337 4.86874 30.7562 4.86874C33.1312 4.86874 35.2688 6.79249 35.2688 9.38124Z" fill="#2171D2"/>
<path d="M51.0625 34.4375V36.8125C51.0625 37.4538 50.5637 37.9763 49.8987 38H46.4312C45.1725 38 44.0325 37.0738 43.9375 35.8388C43.8662 35.1025 44.1512 34.4137 44.6262 33.9387C45.0537 33.4875 45.6475 33.25 46.2887 33.25H49.875C50.5637 33.2737 51.0625 33.7962 51.0625 34.4375Z" fill="#2171D2"/>
<path d="M46.265 30.7562H48.6875C49.9938 30.7562 51.0625 29.6875 51.0625 28.3812V27.3363C51.0625 22.42 47.0487 18.4062 42.1325 18.4062H14.8675C12.8488 18.4062 10.9962 19.0713 9.5 20.2113C7.33875 21.8263 5.9375 24.415 5.9375 27.3363V43.32C5.9375 48.2362 9.95125 52.25 14.8675 52.25H42.1325C47.0487 52.25 51.0625 48.2362 51.0625 43.32V42.8687C51.0625 41.5625 49.9938 40.4937 48.6875 40.4937H46.6212C44.3412 40.4937 42.1562 39.0925 41.5625 36.8837C41.0638 35.0787 41.6575 33.345 42.845 32.1813C43.7238 31.2788 44.935 30.7562 46.265 30.7562ZM33.25 30.2812H16.625C15.6513 30.2812 14.8438 29.4737 14.8438 28.5C14.8438 27.5263 15.6513 26.7188 16.625 26.7188H33.25C34.2237 26.7188 35.0312 27.5263 35.0312 28.5C35.0312 29.4737 34.2237 30.2812 33.25 30.2812Z" fill="#2171D2"/>
</svg>
