<svg width="17" height="17" viewBox="0 0 17 17" fill="none" xmlns="http://www.w3.org/2000/svg">
<path d="M15.0662 6.50251C14.8608 6.17667 14.6412 5.87209 14.4146 5.58875C14.1525 5.25584 13.6567 5.22751 13.3592 5.52501L11.2342 7.65001C11.39 8.11751 11.4183 8.65584 11.2767 9.21542C11.0287 10.2142 10.2212 11.0217 9.22248 11.2696C8.6629 11.4113 8.12457 11.3829 7.65707 11.2271C7.65707 11.2271 6.64415 12.24 5.91457 12.9696C5.5604 13.3238 5.67373 13.9471 6.14832 14.1313C6.90623 14.4217 7.69248 14.5704 8.49998 14.5704C9.76082 14.5704 10.9862 14.2021 12.1054 13.515C13.2458 12.8067 14.2729 11.7654 15.1017 10.4408C15.7746 9.37126 15.7392 7.57209 15.0662 6.50251Z" fill="#FFA800"/>
<path d="M9.93085 7.06918L7.06918 9.93085C6.70793 9.56252 6.47418 9.05252 6.47418 8.50002C6.47418 7.38793 7.38085 6.47418 8.50002 6.47418C9.05252 6.47418 9.56252 6.70793 9.93085 7.06918Z" fill="#FFA800"/>
<path d="M12.9271 4.07293L10.5259 6.47418C10.0088 5.95001 9.29335 5.63835 8.50002 5.63835C6.91335 5.63835 5.63835 6.92043 5.63835 8.50001C5.63835 9.29335 5.9571 10.0088 6.47419 10.5258L4.08002 12.9271H4.07294C3.28669 12.2896 2.56419 11.475 1.94794 10.5117C1.2396 9.3996 1.2396 7.59335 1.94794 6.48126C2.7696 5.1921 3.77544 4.17918 4.8946 3.48501C6.01377 2.80501 7.23919 2.4296 8.50002 2.4296C10.0796 2.4296 11.6096 3.01043 12.9271 4.07293Z" fill="#FFA800"/>
<path d="M10.5258 8.49999C10.5258 9.61208 9.61916 10.5258 8.49999 10.5258C8.45749 10.5258 8.42208 10.5258 8.37958 10.5117L10.5117 8.37958C10.5258 8.42208 10.5258 8.45749 10.5258 8.49999Z" fill="#FFA800"/>
<path d="M15.4204 1.57957C15.2079 1.36707 14.8609 1.36707 14.6484 1.57957L1.5796 14.6554C1.3671 14.8679 1.3671 15.215 1.5796 15.4275C1.68585 15.5267 1.82044 15.5833 1.9621 15.5833C2.10377 15.5833 2.23835 15.5267 2.3446 15.4204L15.4204 2.34457C15.64 2.13207 15.64 1.79207 15.4204 1.57957Z" fill="#FFA800"/>
</svg>
