<svg width="70" height="70" viewBox="0 0 70 70" fill="none" xmlns="http://www.w3.org/2000/svg">
<path d="M61.5999 20.3583L49.6416 8.39998C48.2416 6.99998 45.4416 5.83331 43.4582 5.83331H26.5416C24.5583 5.83331 21.7583 6.99998 20.3583 8.39998L8.39992 20.3583C6.99992 21.7583 5.83325 24.5583 5.83325 26.5416V43.4583C5.83325 45.4416 6.99992 48.2416 8.39992 49.6416L20.3583 61.6C21.7583 63 24.5583 64.1666 26.5416 64.1666H43.4582C45.4416 64.1666 48.2416 63 49.6416 61.6L61.5999 49.6416C62.9999 48.2416 64.1666 45.4416 64.1666 43.4583V26.5416C64.1666 24.5583 62.9999 21.7583 61.5999 20.3583ZM46.7541 43.6625C47.5999 44.5083 47.5999 45.9083 46.7541 46.7541C46.3166 47.1916 45.7624 47.3958 45.2082 47.3958C44.6541 47.3958 44.0999 47.1916 43.6624 46.7541L34.9999 38.0916L26.3374 46.7541C25.8999 47.1916 25.3458 47.3958 24.7916 47.3958C24.2374 47.3958 23.6833 47.1916 23.2458 46.7541C22.3999 45.9083 22.3999 44.5083 23.2458 43.6625L31.9082 35L23.2458 26.3375C22.3999 25.4916 22.3999 24.0916 23.2458 23.2458C24.0916 22.4 25.4916 22.4 26.3374 23.2458L34.9999 31.9083L43.6624 23.2458C44.5083 22.4 45.9083 22.4 46.7541 23.2458C47.5999 24.0916 47.5999 25.4916 46.7541 26.3375L38.0916 35L46.7541 43.6625Z" fill="#EC273A"/>
</svg>
