<svg width="20" height="20" viewBox="0 0 20 20" fill="none" xmlns="http://www.w3.org/2000/svg">
<path d="M17.3584 6.67498L11.9001 2.30831C10.8334 1.45831 9.16672 1.44997 8.10838 2.29997L2.65005 6.67498C1.86672 7.29998 1.39172 8.54997 1.55838 9.53331L2.60838 15.8166C2.85005 17.225 4.15838 18.3333 5.58338 18.3333H14.4167C15.8251 18.3333 17.1584 17.2 17.4001 15.8083L18.4501 9.52497C18.6001 8.54997 18.1251 7.29998 17.3584 6.67498ZM10.6251 15C10.6251 15.3416 10.3417 15.625 10.0001 15.625C9.65838 15.625 9.37505 15.3416 9.37505 15V12.5C9.37505 12.1583 9.65838 11.875 10.0001 11.875C10.3417 11.875 10.6251 12.1583 10.6251 12.5V15Z" fill="#2171D2"/>
</svg>
