<svg width="27" height="29" viewBox="0 0 27 29" fill="none" xmlns="http://www.w3.org/2000/svg">
<path d="M0 12.0656C0 5.40195 5.40195 0 12.0656 0V0V16.9344C12.0656 23.598 6.66365 29 0 29V29V12.0656Z" fill="#EFEFEF"/>
<path d="M13.8159 6.55635C13.8159 2.93537 16.7513 0 20.3723 0V0C23.9932 0 26.9286 2.93538 26.9286 6.55635V7.06038C26.9286 10.6813 23.9932 13.6167 20.3723 13.6167V13.6167C16.7513 13.6167 13.8159 10.6813 13.8159 7.06038V6.55635Z" fill="#2171D2"/>
<path d="M13.8159 21.9396C13.8159 18.3186 16.7513 15.3833 20.3723 15.3833V15.3833C23.9932 15.3833 26.9286 18.3186 26.9286 21.9396V22.4436C26.9286 26.0646 23.9932 29 20.3723 29V29C16.7513 29 13.8159 26.0646 13.8159 22.4436V21.9396Z" fill="#FFA800"/>
</svg>
