<svg width="66" height="66" viewBox="0 0 66 66" fill="none" xmlns="http://www.w3.org/2000/svg">
<path d="M57.9426 14.3825C53.5151 13.9425 49.0876 13.6125 44.6326 13.365V13.3375L44.0276 9.7625C43.6151 7.2325 43.0101 3.4375 36.5751 3.4375H29.3701C22.9626 3.4375 22.3576 7.0675 21.9176 9.735L21.3401 13.255C18.7826 13.42 16.2251 13.585 13.6676 13.8325L8.05757 14.3825C6.90257 14.4925 6.07757 15.51 6.18757 16.6375C6.29757 17.765 7.28757 18.59 8.44257 18.48L14.0526 17.93C28.4626 16.5 42.9826 17.05 57.5576 18.5075C57.6401 18.5075 57.6951 18.5075 57.7776 18.5075C58.8226 18.5075 59.7301 17.71 59.8401 16.6375C59.9226 15.51 59.0976 14.4925 57.9426 14.3825Z" fill="#EC273A"/>
<path d="M52.8825 22.385C52.2225 21.6975 51.315 21.3125 50.38 21.3125H15.62C14.685 21.3125 13.75 21.6975 13.1175 22.385C12.485 23.0725 12.1275 24.0075 12.1825 24.97L13.8875 53.185C14.19 57.365 14.575 62.59 24.1725 62.59H41.8275C51.425 62.59 51.81 57.3925 52.1125 53.185L53.8175 24.9975C53.8725 24.0075 53.515 23.0725 52.8825 22.385ZM37.565 48.8125H28.4075C27.28 48.8125 26.345 47.8775 26.345 46.75C26.345 45.6225 27.28 44.6875 28.4075 44.6875H37.565C38.6925 44.6875 39.6275 45.6225 39.6275 46.75C39.6275 47.8775 38.6925 48.8125 37.565 48.8125ZM39.875 37.8125H26.125C24.9975 37.8125 24.0625 36.8775 24.0625 35.75C24.0625 34.6225 24.9975 33.6875 26.125 33.6875H39.875C41.0025 33.6875 41.9375 34.6225 41.9375 35.75C41.9375 36.8775 41.0025 37.8125 39.875 37.8125Z" fill="#EC273A"/>
</svg>
