<svg width="20" height="20" viewBox="0 0 20 20" fill="none" xmlns="http://www.w3.org/2000/svg">
<path d="M17.5583 4.35835C16.2167 4.22502 14.875 4.12502 13.525 4.05002V4.04169L13.3417 2.95835C13.2167 2.19169 13.0333 1.04169 11.0833 1.04169H8.89999C6.95832 1.04169 6.77499 2.14169 6.64166 2.95002L6.46666 4.01669C5.69166 4.06669 4.91666 4.11669 4.14166 4.19169L2.44166 4.35835C2.09166 4.39169 1.84166 4.70002 1.87499 5.04169C1.90832 5.38335 2.20832 5.63335 2.55832 5.60002L4.25832 5.43335C8.62499 5.00002 13.025 5.16669 17.4417 5.60835C17.4667 5.60835 17.4833 5.60835 17.5083 5.60835C17.825 5.60835 18.1 5.36669 18.1333 5.04169C18.1583 4.70002 17.9083 4.39169 17.5583 4.35835Z" fill="#EC273A"/>
<path d="M16.025 6.78331C15.825 6.57498 15.55 6.45831 15.2667 6.45831H4.73335C4.45002 6.45831 4.16668 6.57498 3.97502 6.78331C3.78335 6.99165 3.67501 7.27498 3.69168 7.56665L4.20835 16.1166C4.30002 17.3833 4.41668 18.9666 7.32502 18.9666H12.675C15.5833 18.9666 15.7 17.3916 15.7917 16.1166L16.3083 7.57498C16.325 7.27498 16.2167 6.99165 16.025 6.78331ZM11.3833 14.7916H8.60835C8.26668 14.7916 7.98335 14.5083 7.98335 14.1666C7.98335 13.825 8.26668 13.5416 8.60835 13.5416H11.3833C11.725 13.5416 12.0083 13.825 12.0083 14.1666C12.0083 14.5083 11.725 14.7916 11.3833 14.7916ZM12.0833 11.4583H7.91668C7.57502 11.4583 7.29168 11.175 7.29168 10.8333C7.29168 10.4916 7.57502 10.2083 7.91668 10.2083H12.0833C12.425 10.2083 12.7083 10.4916 12.7083 10.8333C12.7083 11.175 12.425 11.4583 12.0833 11.4583Z" fill="#EC273A"/>
</svg>
