<svg width="21" height="21" viewBox="0 0 21 21" fill="none" xmlns="http://www.w3.org/2000/svg">
<path d="M14.7437 15.0063L16.0037 13.7463L11.7337 9.47625L8.85498 12.355C8.51373 12.6963 7.96248 12.6963 7.62123 12.355L2.37123 7.09625C2.02998 6.755 2.02998 6.20375 2.37123 5.8625C2.71248 5.52125 3.26373 5.52125 3.60498 5.8625L8.23373 10.5L11.1125 7.62125C11.4537 7.28 12.005 7.28 12.3462 7.62125L17.2375 12.5038L18.4975 11.2438C18.7687 10.9725 19.2412 11.165 19.2412 11.55V15.3038C19.2412 15.5488 19.0487 15.7413 18.8037 15.7413H15.05C14.665 15.75 14.4725 15.2775 14.7437 15.0063Z" fill="#EC273A"/>
</svg>
