<svg width="21" height="21" viewBox="0 0 21 21" fill="none" xmlns="http://www.w3.org/2000/svg">
<path d="M14.7437 5.99375L16.0037 7.25375L11.7337 11.5238L8.85498 8.645C8.51373 8.30375 7.96248 8.30375 7.62123 8.645L2.37123 13.9038C2.02998 14.245 2.02998 14.7962 2.37123 15.1375C2.71248 15.4788 3.26373 15.4788 3.60498 15.1375L8.23373 10.5L11.1125 13.3788C11.4537 13.72 12.005 13.72 12.3462 13.3788L17.2375 8.49625L18.4975 9.75625C18.7687 10.0275 19.2412 9.835 19.2412 9.45V5.6875C19.25 5.4425 19.0575 5.25 18.8125 5.25H15.0587C14.665 5.25 14.4725 5.7225 14.7437 5.99375Z" fill="#2171D2"/>
</svg>
