<svg width="20" height="20" viewBox="0 0 20 20" fill="none" xmlns="http://www.w3.org/2000/svg">
<path d="M17.475 13.4C17.275 15.625 15.6667 17.0834 13.3333 17.0834H5.83332C3.53332 17.0834 1.66666 15.2167 1.66666 12.9167V7.08335C1.66666 4.81669 3.03332 3.23335 5.15832 2.96669C5.37499 2.93335 5.59999 2.91669 5.83332 2.91669H13.3333C13.55 2.91669 13.7583 2.92502 13.9583 2.95835C15.95 3.19169 17.3 4.58335 17.475 6.60002C17.5 6.84169 17.3 7.04169 17.0583 7.04169H15.7667C14.9667 7.04169 14.225 7.35002 13.6917 7.90002C13.0583 8.51669 12.7417 9.38335 12.8167 10.25C12.95 11.7667 14.2833 12.9584 15.8667 12.9584H17.0583C17.3 12.9584 17.5 13.1584 17.475 13.4Z" fill="black"/>
<path d="M18.3333 9.14169V10.8584C18.3333 11.3167 17.9667 11.6917 17.5 11.7084H15.8667C14.9667 11.7084 14.1417 11.05 14.0667 10.15C14.0167 9.62502 14.2167 9.13335 14.5667 8.79169C14.875 8.47502 15.3 8.29169 15.7667 8.29169H17.5C17.9667 8.30835 18.3333 8.68335 18.3333 9.14169Z" fill="black"/>
</svg>
