<svg width="18" height="18" viewBox="0 0 18 18" fill="none" xmlns="http://www.w3.org/2000/svg">
<path d="M15.7275 12.06C15.5475 14.0625 14.1 15.375 12 15.375H5.25C3.18 15.375 1.5 13.695 1.5 11.625V6.375C1.5 4.335 2.73 2.91 4.6425 2.67C4.8375 2.64 5.04 2.625 5.25 2.625H12C12.195 2.625 12.3825 2.6325 12.5625 2.6625C14.355 2.8725 15.57 4.125 15.7275 5.94C15.75 6.1575 15.57 6.3375 15.3525 6.3375H14.19C13.47 6.3375 12.8025 6.615 12.3225 7.11C11.7525 7.665 11.4675 8.445 11.535 9.225C11.655 10.59 12.855 11.6625 14.28 11.6625H15.3525C15.57 11.6625 15.75 11.8425 15.7275 12.06Z" fill="white"/>
<path d="M16.5 8.22749V9.77249C16.5 10.185 16.17 10.5225 15.75 10.5375H14.28C13.47 10.5375 12.7275 9.94499 12.66 9.13499C12.615 8.66249 12.795 8.21999 13.11 7.91249C13.3875 7.62749 13.77 7.46249 14.19 7.46249H15.75C16.17 7.47749 16.5 7.81499 16.5 8.22749Z" fill="white"/>
</svg>
